<?xml version="1.0" encoding="UTF-8"?>
<svg enable-background="new -241.9 368.1 89.9 81.5" version="1.1" viewBox="-241.9 368.1 89.9 81.5" xmlns="http://www.w3.org/2000/svg">
 <style type="text/css">.st0{display:none;} .st1{display:inline;}</style>
 <g class="st0">
  <path class="st1" d="m-152.1 391.1l-22.9 8.6v-7.9c0-4.3-3.5-7.9-7.9-7.9h-51.2c-4.3 0-7.9 3.5-7.9 7.9v34c0 4.3 3.5 7.9 7.9 7.9h51.2c4.3 0 7.9-3.5 7.9-7.9v-7.6l22.9 8.4v-35.5zm-26 34.8c0 2.6-2.1 4.7-4.7 4.7h-51.2c-2.6 0-4.7-2.1-4.7-4.7v-34c0-2.6 2.1-4.7 4.7-4.7h51.2c2.6 0 4.7 2.1 4.7 4.7v34zm22.9-3.8l-19.6-7.1v-11.9l19.6-7.4v26.4z"/>
 </g>
 <path d="m-159.8 385.8c-1.8-1.5-3.5-2.7-4.8-3.3 0.3-0.6 0.4-1.3 0.4-2 0-2.6-2.1-4.7-4.7-4.7-0.8 0-1.5 0.2-2.2 0.5-0.8-1.2-2.2-2.8-4-4.3-3.2-2.7-6.3-4.3-7-3.5s1.4 3.6 4.6 6.3c1.7 1.4 3.4 2.6 4.6 3.2-0.4 0.7-0.7 1.6-0.7 2.5 0 0.6 0.1 1.2 0.3 1.7-7 7.5-14.3 11.8-17.7 13.6-2-1-4.3-1.6-6.6-1.6-2 0-3.8 0.4-5.6 1.1-6.5-2.9-14.3-10-17.9-13.5 0.1-0.4 0.2-0.8 0.2-1.3 0-0.8-0.2-1.5-0.5-2.1 1.3-0.7 2.9-2 4.6-3.6 3-2.9 4.8-5.9 4.1-6.6s-3.7 1.1-6.7 4c-1.6 1.6-2.9 3.2-3.6 4.4-0.7-0.5-1.6-0.8-2.6-0.8-2.6 0-4.7 2.1-4.7 4.7 0 0.8 0.2 1.5 0.5 2.1-1.3 0.7-2.9 2-4.6 3.6-3 2.9-4.8 5.9-4.1 6.6s3.7-1.1 6.7-4c1.6-1.6 2.9-3.2 3.6-4.4 0.7 0.5 1.6 0.8 2.6 0.8 0.5 0 1.1-0.1 1.6-0.3 7.4 6.5 11.7 13.3 13.6 16.7-1.2 2.1-1.9 4.6-1.9 7.2 0 2.1 0.5 4.2 1.3 6-2.8 6.4-9.7 14-13.2 17.6-0.4-0.1-0.9-0.2-1.4-0.2-0.9 0-1.7 0.2-2.3 0.6-0.7-1.3-2.2-2.9-4.1-4.6-3.1-2.8-6.2-4.4-6.9-3.7-0.7 0.8 1.3 3.6 4.5 6.4 1.8 1.6 3.6 2.8 4.9 3.4-0.4 0.7-0.7 1.6-0.7 2.5 0 2.6 2.1 4.7 4.7 4.7 0.9 0 1.7-0.2 2.4-0.7 0.8 1.2 2.1 2.6 3.7 4.1 3.1 2.8 6.2 4.4 6.9 3.7 0.7-0.8-1.3-3.6-4.5-6.4-1.6-1.4-3.2-2.5-4.4-3.2 0.3-0.6 0.5-1.4 0.5-2.1 0-0.5-0.1-1-0.2-1.5 6.6-7.4 13.4-11.8 16.7-13.6 2 1.1 4.3 1.7 6.8 1.7s4.8-0.6 6.8-1.7c6.4 3.3 13.8 10.5 17.1 13.8-0.1 0.4-0.2 0.8-0.2 1.3 0 0.8 0.2 1.6 0.6 2.2-1.2 0.7-2.8 2-4.3 3.6-2.9 3-4.7 6-4 6.7s3.7-1.2 6.6-4.2c1.5-1.6 2.7-3.1 3.4-4.4 0.7 0.4 1.5 0.7 2.4 0.7 2.6 0 4.7-2.1 4.7-4.7 0-0.8-0.2-1.5-0.5-2.2 1.3-0.7 3-2.1 4.7-3.8 2.9-3 4.7-6 4-6.7s-3.7 1.2-6.6 4.2c-1.6 1.7-2.9 3.4-3.6 4.6-0.7-0.5-1.6-0.8-2.6-0.8-0.5 0-1 0.1-1.5 0.3-7.6-7-11.9-14.3-13.5-17.6 0.8-1.9 1.3-3.9 1.3-6.1 0-2.3-0.5-4.4-1.4-6.3 3.4-6.7 11.3-14.5 14.4-17.4 0.3 0.1 0.7 0.1 1.1 0.1 1 0 1.9-0.3 2.7-0.9 0.8 1.2 2.2 2.7 4 4.2 3.2 2.7 6.3 4.3 7 3.5 0.4-0.5-1.6-3.3-4.8-6.1zm-65.6-4.2c-0.6 0-1-0.5-1-1 0-0.6 0.5-1 1-1 0.6 0 1.1 0.5 1.1 1-0.1 0.5-0.5 1-1.1 1zm0 56.4c-0.6 0-1-0.5-1-1 0-0.6 0.5-1.1 1-1.1 0.6 0 1.1 0.5 1.1 1.1 0 0.5-0.5 1-1.1 1zm56.2-2c0.6 0 1.1 0.5 1.1 1 0 0.6-0.5 1.1-1.1 1.1s-1-0.5-1-1.1c-0.1-0.6 0.4-1 1-1zm0.4-54.4c-0.6 0-1.1-0.5-1.1-1 0-0.6 0.5-1.1 1.1-1.1s1 0.5 1 1.1c0 0.5-0.5 1-1 1z"/>
</svg>
