<?xml version="1.0"?>
<svg xmlns:rdf="http://www.w3.org/1999/02/22-rdf-syntax-ns#" xmlns="http://www.w3.org/2000/svg" xmlns:cc="http://web.resource.org/cc/" xmlns:dc="http://purl.org/dc/elements/1.1/" xmlns:svg="http://www.w3.org/2000/svg" id="svg14350" viewBox="0 0 134.72 134.62" version="1.0">
  <g id="layer1" transform="translate(-3048.4 2585.9)">
    <path id="path8614" fill-rule="evenodd" fill="#f00" d="m3083.8-2585.9l-35.4 35.4v63.9l35.3 35.3h63.1l36.3-36.3v-63.2l-35-35-64.3-0.1zm2.1 4.3l60.1 0.2 32.8 32.7v59.1l-34 34h-59.1l-33-33.1v-59.7l33.2-33.2z"/>
    <path id="path6674" fill-rule="evenodd" fill="#f00" d="m3088-2577l-30.7 30.7v55.4l30.6 30.7h54.8l31.5-31.5v-54.8l-30.4-30.4-55.8-0.1z"/>
    <path id="text8622" d="m3546.4-2167.9l6.6-0.7c0.8 5.2 3.2 7.8 7.3 7.8 2 0 3.6-0.6 4.8-1.6 1.2-1.1 1.7-2.4 1.7-4 0-0.9-0.2-1.7-0.6-2.4-0.4-0.6-1-1.1-1.8-1.6-0.9-0.4-2.9-1.1-6.1-2-2.8-0.9-4.9-1.9-6.3-2.9-1.3-1-2.4-2.3-3.2-4-0.7-1.6-1.1-3.4-1.1-5.3 0-2.3 0.5-4.3 1.5-6 1-1.8 2.4-3.1 4.2-4.1 1.7-0.9 3.9-1.3 6.5-1.3 4 0 7 1 9.2 3.2 2.2 2.1 3.4 5.1 3.5 9.1l-6.7 0.4c-0.3-2.2-1-3.7-1.9-4.6-1-0.9-2.4-1.3-4.2-1.3s-3.2 0.4-4.2 1.1c-1 0.8-1.5 1.7-1.5 2.9 0 1.1 0.4 2 1.3 2.8 0.9 0.7 3 1.6 6.2 2.5 3.4 0.9 5.8 2 7.3 3.1 1.5 1 2.7 2.4 3.5 4.1 0.8 1.8 1.2 3.8 1.2 6.3 0 3.5-1.1 6.5-3.3 8.9s-5.6 3.6-10.2 3.6c-8.2 0-12.7-4.7-13.7-14zm40.4 13.3v-33.8h-10v-6.9h26.6v6.9h-9.9v33.8h-6.7zm19.6-20.1c0-4.9 0.8-8.9 2.2-12s3.3-5.5 5.6-7 5.1-2.3 8.4-2.3c4.8 0 8.7 1.8 11.7 5.5 3 3.6 4.5 8.8 4.5 15.5 0 6.8-1.6 12.2-4.8 16-2.8 3.4-6.6 5.1-11.4 5.1s-8.6-1.7-11.4-5.1c-3.2-3.8-4.8-9-4.8-15.7zm7-0.3c0 4.7 0.9 8.2 2.6 10.5 1.8 2.4 4 3.5 6.6 3.5 2.7 0 4.9-1.1 6.6-3.4 1.8-2.4 2.6-5.9 2.6-10.7s-0.8-8.2-2.5-10.5-3.9-3.4-6.7-3.4c-2.7 0-4.9 1.1-6.6 3.4-1.8 2.3-2.6 5.8-2.6 10.6zm30.7 20.4v-40.7h10.8c4 0 6.7 0.2 7.9 0.6 2 0.6 3.6 1.9 4.9 4 1.3 2 1.9 4.7 1.9 7.9 0 3-0.5 5.4-1.6 7.4s-2.5 3.4-4.2 4.2c-1.6 0.8-4.5 1.2-8.6 1.2h-4.4v15.4h-6.7zm6.7-33.8v11.5h3.7c2.5 0 4.2-0.2 5.1-0.5 0.9-0.4 1.6-1 2.2-1.9s0.9-2.1 0.9-3.4-0.3-2.5-0.9-3.4-1.3-1.6-2.2-1.9-2.7-0.4-5.5-0.4h-3.3z" fill="#fff" transform="scale(.86355 1.158)"/>
  </g>
  <metadata>
    <rdf:RDF>
      <cc:Work>
        <dc:format>image/svg+xml</dc:format>
        <dc:type rdf:resource="http://purl.org/dc/dcmitype/StillImage"/>
        <cc:license rdf:resource="http://creativecommons.org/licenses/publicdomain/"/>
        <dc:publisher>
          <cc:Agent rdf:about="http://openclipart.org/">
            <dc:title>Openclipart</dc:title>
          </cc:Agent>
        </dc:publisher>
        <dc:title>stop sign</dc:title>
        <dc:date>2007-10-20T00:26:43</dc:date>
        <dc:description>clip art, clipart, image, media, public domain, roadsign, roadsign, sign, sign, svg, </dc:description>
        <dc:source>http://openclipart.org/detail/7263/stop-sign-by-leomarc</dc:source>
        <dc:creator>
          <cc:Agent>
            <dc:title>Leomarc</dc:title>
          </cc:Agent>
        </dc:creator>
        <dc:subject>
          <rdf:Bag>
            <rdf:li>clip art</rdf:li>
            <rdf:li>clipart</rdf:li>
            <rdf:li>image</rdf:li>
            <rdf:li>media</rdf:li>
            <rdf:li>public domain</rdf:li>
            <rdf:li>roadsign</rdf:li>
            <rdf:li>sign</rdf:li>
            <rdf:li>svg</rdf:li>
          </rdf:Bag>
        </dc:subject>
      </cc:Work>
      <cc:License rdf:about="http://creativecommons.org/licenses/publicdomain/">
        <cc:permits rdf:resource="http://creativecommons.org/ns#Reproduction"/>
        <cc:permits rdf:resource="http://creativecommons.org/ns#Distribution"/>
        <cc:permits rdf:resource="http://creativecommons.org/ns#DerivativeWorks"/>
      </cc:License>
    </rdf:RDF>
  </metadata>
</svg>
