<?xml version="1.0" encoding="utf-8"?>
<!-- Generator: Adobe Illustrator 18.1.0, SVG Export Plug-In . SVG Version: 6.00 Build 0)  -->
<svg version="1.1" id="Layer_1" xmlns="http://www.w3.org/2000/svg" xmlns:xlink="http://www.w3.org/1999/xlink" x="0px" y="0px"
	 viewBox="0 0 38 38" enable-background="new 0 0 38 38" xml:space="preserve">
<text transform="matrix(1 0 0 1 8.688 33.9059)" font-family="'ArialNarrow-Bold'" font-size="12">TCA</text>
<polygon points="18.4,13.8 18,18.8 15.6,19.3 15.3,17.4 14.9,17.6 14.8,17.1 13,18 11.8,15.7 15.8,12.5 19.1,6.1 22.4,2.6 21.6,7.4 
	"/>
<path d="M11.3,15.8c-1,0.1-1.6,1.5-1.6,1.5l0.8,0l-0.3,0.8l0.9,0l-0.2,0.4l0.1-0.1l-0.2,0.4c0,0,1.5,0,1.8-0.5
	C12.8,17.7,11.7,15.8,11.3,15.8z"/>
<path d="M18.1,19.2c1.1,0.8-0.1,3-0.1,3l-0.4-1.3l-0.6,2.5L16.3,21l0.1,0.3l0.1-0.1l-0.3,0.9c0,0-1.1-1.4-0.7-2.2
	C15.8,19.2,17.8,18.9,18.1,19.2z"/>
<path fill="none" stroke="#000000" stroke-width="0.5" stroke-miterlimit="10" d="M18.9,4.7c-1.3,0.7-3.4,2.3-3.6,6.1"/>
<path fill="none" stroke="#000000" stroke-width="0.5" stroke-miterlimit="10" d="M17,3.8c-1.3,0.7-3.4,2.3-3.6,6.1"/>
<path fill="none" stroke="#000000" stroke-width="0.5" stroke-miterlimit="10" d="M20.2,13.2c1.3-0.7,3.4-2.3,3.6-6.1"/>
<path fill="none" stroke="#000000" stroke-width="0.5" stroke-miterlimit="10" d="M22.1,14.1c1.3-0.7,3.4-2.3,3.6-6.1"/>
</svg>
